<svg xmlns="http://www.w3.org/2000/svg" xmlns:xlink="http://www.w3.org/1999/xlink" width="500" zoomAndPan="magnify" viewBox="0 0 375 374.999991" height="500" preserveAspectRatio="xMidYMid meet" version="1.0"><defs><clipPath id="9d4e6d45c7"><path d="M 119.625 112.5 L 255 112.5 L 255 262.5 L 119.625 262.5 Z M 119.625 112.5 " clip-rule="nonzero"/></clipPath></defs><rect x="-37.5" width="450" fill="#ffffff" y="-37.499999" height="449.999989" fill-opacity="1"/><rect x="-37.5" width="450" fill="#ffffff" y="-37.499999" height="449.999989" fill-opacity="1"/><path fill="#d14b62" d="M 243.777344 142.472656 C 250.425781 142.472656 254.867188 152.320312 252.640625 163.140625 C 250.414062 173.960938 239.296875 183.980469 239.296875 193.5 C 237.214844 196.824219 234.929688 197.132812 232.382812 193.5 C 229.308594 180.871094 228.835938 168.78125 232.382812 157.515625 C 232.382812 150.210938 237.125 142.472656 243.777344 142.472656 Z M 246.554688 162.167969 C 247.578125 157.179688 246.601562 152.765625 244.378906 152.308594 C 242.152344 151.855469 239.523438 155.53125 238.5 160.519531 C 237.480469 165.511719 238.453125 169.925781 240.679688 170.382812 C 242.90625 170.832031 245.535156 167.160156 246.554688 162.167969 Z M 246.554688 162.167969 " fill-opacity="1" fill-rule="nonzero"/><path fill="#e15c63" d="M 220.992188 142.472656 C 214.339844 142.472656 209.902344 152.320312 212.128906 163.140625 C 212.96875 167.214844 215.066406 171.171875 217.359375 175.039062 L 226.132812 193.5 C 227.832031 195.441406 229.902344 195.507812 232.382812 193.5 L 232.382812 157.515625 C 232.382812 150.210938 227.644531 142.472656 220.992188 142.472656 Z M 224.089844 170.382812 C 221.863281 170.832031 219.234375 167.160156 218.214844 162.167969 C 217.191406 157.179688 218.164062 152.765625 220.390625 152.308594 C 222.613281 151.855469 225.246094 155.53125 226.269531 160.519531 C 227.289062 165.511719 226.3125 169.925781 224.089844 170.382812 Z M 224.089844 170.382812 " fill-opacity="1" fill-rule="nonzero"/><path fill="#ad6a6a" d="M 252.28125 224.574219 L 252.28125 253.617188 L 178.644531 253.617188 C 169.328125 243.144531 170.03125 233.523438 178.644531 224.574219 L 187.351562 224.574219 L 208.6875 215.4375 L 226.132812 218.390625 L 239.296875 224.574219 Z M 252.28125 224.574219 " fill-opacity="1" fill-rule="nonzero"/><path fill="#fec4b9" d="M 202.011719 166.578125 L 194.371094 144.242188 L 191.824219 136.792969 L 183.9375 113.71875 L 166.578125 119.65625 L 176.128906 147.589844 L 175.863281 153.765625 L 178.835938 155.519531 L 187.351562 180.414062 L 206.738281 180.414062 Z M 202.011719 166.578125 " fill-opacity="1" fill-rule="nonzero"/><path fill="#cdc7b9" d="M 239.296875 193.5 L 239.296875 224.574219 L 226.132812 224.574219 C 219.1875 217.5625 220.144531 209.867188 226.132812 201.738281 C 224.320312 198.648438 223.679688 195.78125 226.132812 193.5 Z M 239.296875 193.5 " fill-opacity="1" fill-rule="nonzero"/><path fill="#f9b132" d="M 226.132812 201.738281 L 226.132812 224.574219 L 206.742188 224.574219 C 204.949219 216.960938 204.949219 209.351562 206.742188 201.738281 L 213.082031 197.753906 L 220.273438 196.695312 Z M 226.132812 201.738281 " fill-opacity="1" fill-rule="nonzero"/><path fill="#ffc05a" d="M 206.742188 201.738281 L 206.742188 224.574219 L 187.351562 224.574219 L 187.351562 201.738281 L 193.378906 200.34375 L 200.886719 199.433594 Z M 206.742188 201.738281 " fill-opacity="1" fill-rule="nonzero"/><path fill="#53b79a" d="M 217.359375 175.039062 C 223.683594 175.480469 226.132812 180.414062 226.132812 180.414062 L 226.132812 201.738281 L 220.273438 201.738281 L 218.371094 190.066406 L 215.027344 188.371094 L 212.597656 201.738281 L 206.742188 201.738281 C 204.199219 194.015625 203.808594 186.8125 206.742188 180.414062 C 206.742188 180.414062 209.421875 175.003906 216.4375 175.003906 C 216.753906 175.003906 217.0625 175.015625 217.359375 175.039062 Z M 217.359375 175.039062 " fill-opacity="1" fill-rule="nonzero"/><path fill="#6fceae" d="M 206.742188 180.414062 L 206.742188 201.738281 L 200.886719 201.738281 L 199.09375 190.371094 L 195.445312 189.570312 L 193.207031 201.738281 L 187.351562 201.738281 L 187.351562 180.414062 C 187.351562 180.414062 190.035156 175.003906 197.042969 175.003906 C 203.949219 175.003906 206.65625 180.25 206.738281 180.410156 Z M 206.742188 180.414062 " fill-opacity="1" fill-rule="nonzero"/><path fill="#e7f2f1" d="M 212.597656 185.054688 L 220.273438 185.054688 L 220.273438 201.738281 L 212.597656 201.738281 Z M 212.597656 185.054688 " fill-opacity="1" fill-rule="nonzero"/><path fill="#e7f2f1" d="M 193.207031 185.054688 L 200.886719 185.054688 L 200.886719 201.738281 L 193.207031 201.738281 Z M 193.207031 185.054688 " fill-opacity="1" fill-rule="nonzero"/><path fill="#655f68" d="M 120.890625 181.933594 L 120.890625 253.617188 C 120.890625 257.867188 133.820312 261.308594 149.769531 261.308594 C 165.714844 261.308594 178.644531 257.867188 178.644531 253.617188 L 178.644531 181.933594 Z M 120.890625 181.933594 " fill-opacity="1" fill-rule="nonzero"/><path fill="#d6eae8" d="M 172.371094 177.144531 C 176.300781 178.457031 178.644531 180.121094 178.644531 181.933594 C 178.644531 184.347656 174.472656 186.496094 167.945312 187.910156 L 167.945312 187.90625 C 165.328125 183.523438 166.804688 179.9375 172.371094 177.144531 Z M 172.371094 177.144531 " fill-opacity="1" fill-rule="nonzero"/><path fill="#d6eae8" d="M 127.148438 177.148438 C 130.875 180.300781 131.15625 183.488281 127.148438 186.714844 C 123.230469 185.402344 120.890625 183.742188 120.890625 181.933594 C 120.890625 180.125 123.230469 178.464844 127.148438 177.148438 Z M 127.148438 177.148438 " fill-opacity="1" fill-rule="nonzero"/><path fill="#d6eae8" d="M 159.3125 174.667969 C 161.335938 180.878906 158.8125 185.699219 153.1875 189.570312 C 148.476562 183.902344 147.03125 178.628906 153.1875 174.292969 C 155.308594 174.359375 157.359375 174.488281 159.3125 174.667969 Z M 159.3125 174.667969 " fill-opacity="1" fill-rule="nonzero"/><path fill="#1498b7" d="M 179.132812 160.699219 L 172.371094 177.144531 L 167.945312 187.90625 L 167.945312 187.910156 C 163.816406 188.804688 158.742188 189.394531 153.1875 189.570312 L 159.3125 174.667969 L 167.089844 155.746094 C 172.695312 154.097656 176.710938 155.746094 179.132812 160.699219 Z M 179.132812 160.699219 " fill-opacity="1" fill-rule="nonzero"/><path fill="#1ea6bc" d="M 178.835938 155.519531 L 179.132812 160.699219 L 167.089844 155.746094 L 176.128906 147.59375 L 176.128906 147.589844 L 178.277344 145.652344 Z M 178.835938 155.519531 " fill-opacity="1" fill-rule="nonzero"/><path fill="#ea728c" d="M 153.1875 174.292969 L 153.1875 189.570312 C 152.066406 189.605469 150.925781 189.625 149.769531 189.625 C 146.402344 189.625 143.171875 189.46875 140.167969 189.1875 C 136.386719 177.316406 136.636719 165.964844 140.167969 155.042969 C 144.507812 151.347656 148.847656 151.347656 153.1875 155.042969 Z M 153.1875 174.292969 " fill-opacity="1" fill-rule="nonzero"/><path fill="#f48ca7" d="M 146.675781 141.453125 L 153.1875 155.042969 L 140.167969 155.042969 Z M 146.675781 141.453125 " fill-opacity="1" fill-rule="nonzero"/><path fill="#f9b132" d="M 140.167969 155.042969 L 140.167969 189.1875 C 134.996094 188.703125 130.496094 187.835938 127.148438 186.714844 L 127.148438 155.042969 C 131.488281 151.347656 135.828125 151.347656 140.167969 155.042969 Z M 140.167969 155.042969 " fill-opacity="1" fill-rule="nonzero"/><path fill="#ffc05a" d="M 133.660156 141.453125 L 140.167969 155.042969 L 127.148438 155.042969 Z M 133.660156 141.453125 " fill-opacity="1" fill-rule="nonzero"/><path fill="#5d5560" d="M 152.363281 246.230469 C 178.269531 231.558594 178.644531 200.109375 178.644531 200.109375 L 178.644531 253.617188 C 178.644531 257.867188 165.714844 261.308594 149.769531 261.308594 C 133.820312 261.308594 120.890625 257.867188 120.890625 253.617188 C 134.222656 253.617188 144.476562 250.703125 152.363281 246.230469 Z M 152.363281 246.230469 " fill-opacity="1" fill-rule="nonzero"/><path fill="#a35757" d="M 178.644531 224.574219 L 184.085938 224.574219 L 184.085938 253.617188 L 178.644531 253.617188 Z M 178.644531 224.574219 " fill-opacity="1" fill-rule="nonzero"/><g clip-path="url(#9d4e6d45c7)"><path fill="#3a322b" d="M 149.769531 262.5 C 163.65625 262.5 177.703125 259.863281 179.613281 254.808594 L 252.28125 254.808594 C 252.9375 254.808594 253.472656 254.273438 253.472656 253.617188 L 253.472656 224.574219 C 253.472656 223.914062 252.9375 223.382812 252.28125 223.382812 L 240.484375 223.382812 L 240.484375 193.5 C 240.484375 188.734375 243.554688 183.691406 246.804688 178.347656 C 249.71875 173.558594 252.730469 168.609375 253.804688 163.378906 C 255.285156 156.195312 254.035156 149.074219 250.550781 144.796875 C 248.675781 142.496094 246.332031 141.28125 243.777344 141.28125 C 238.410156 141.28125 234.300781 145.546875 232.382812 150.835938 C 230.464844 145.546875 226.355469 141.28125 220.992188 141.28125 C 218.433594 141.28125 216.09375 142.496094 214.21875 144.796875 C 210.730469 149.074219 209.484375 156.195312 210.960938 163.378906 C 211.714844 167.035156 213.421875 170.554688 215.300781 173.863281 C 211.179688 174.191406 208.570312 176.230469 207.121094 177.851562 L 185.066406 113.335938 C 184.960938 113.035156 184.746094 112.789062 184.460938 112.652344 C 184.179688 112.511719 183.851562 112.492188 183.554688 112.59375 L 166.191406 118.53125 C 165.894531 118.632812 165.648438 118.847656 165.507812 119.132812 C 165.371094 119.414062 165.347656 119.742188 165.449219 120.039062 L 174.75 147.234375 L 166.292969 154.863281 C 166.160156 154.984375 166.058594 155.132812 165.988281 155.296875 L 158.542969 173.410156 C 157.183594 173.292969 155.789062 173.207031 154.378906 173.148438 L 154.378906 155.042969 C 154.378906 154.863281 154.335938 154.6875 154.261719 154.527344 L 147.75 140.941406 C 147.554688 140.527344 147.136719 140.261719 146.675781 140.261719 C 146.21875 140.261719 145.800781 140.527344 145.605469 140.941406 L 140.167969 152.289062 L 134.730469 140.941406 C 134.535156 140.527344 134.117188 140.261719 133.65625 140.261719 C 133.199219 140.261719 132.78125 140.527344 132.585938 140.941406 L 126.074219 154.527344 C 126 154.6875 125.957031 154.863281 125.957031 155.042969 L 125.957031 176.304688 C 121.804688 177.832031 119.699219 179.722656 119.699219 181.929688 L 119.699219 253.617188 C 119.699219 259.449219 134.828125 262.5 149.769531 262.5 Z M 169.878906 257.90625 C 164.523438 259.332031 157.378906 260.121094 149.769531 260.121094 C 142.15625 260.121094 135.011719 259.332031 129.65625 257.90625 C 124.066406 256.417969 122.082031 254.664062 122.082031 253.617188 L 122.082031 185.628906 C 126.914062 189.046875 138.394531 190.816406 149.769531 190.816406 C 161.140625 190.816406 172.621094 189.046875 177.453125 185.628906 L 177.453125 253.617188 C 177.453125 254.664062 175.46875 256.417969 169.878906 257.90625 Z M 128.339844 156.234375 L 138.976562 156.234375 L 138.976562 187.875 C 135.527344 187.5 132.363281 186.941406 129.65625 186.222656 C 129.191406 186.097656 128.753906 185.972656 128.339844 185.84375 Z M 151.996094 188.410156 C 151.257812 188.425781 150.515625 188.433594 149.769531 188.433594 C 146.871094 188.433594 144.046875 188.320312 141.359375 188.101562 L 141.359375 156.234375 L 151.996094 156.234375 Z M 177.835938 158.878906 L 169.289062 155.367188 L 177.230469 148.203125 Z M 179.835938 162.117188 L 186.160156 180.613281 L 186.160156 223.382812 L 179.835938 223.382812 L 179.835938 181.929688 C 179.835938 179.789062 177.851562 177.949219 173.945312 176.445312 Z M 205.550781 180.722656 L 205.550781 200.546875 L 202.074219 200.546875 L 202.074219 185.054688 C 202.074219 184.394531 201.542969 183.863281 200.886719 183.863281 L 193.207031 183.863281 C 192.546875 183.863281 192.015625 184.394531 192.015625 185.054688 L 192.015625 200.546875 L 188.539062 200.546875 L 188.539062 180.722656 C 189.109375 179.769531 191.601562 176.195312 197.046875 176.195312 C 202.5 176.195312 204.988281 179.78125 205.550781 180.722656 Z M 219.085938 200.546875 L 213.785156 200.546875 L 213.785156 186.242188 L 219.085938 186.242188 Z M 224.941406 202.929688 L 224.941406 223.382812 L 207.929688 223.382812 L 207.929688 202.929688 Z M 205.550781 223.382812 L 188.539062 223.382812 L 188.539062 202.929688 L 205.550781 202.929688 Z M 199.695312 200.546875 L 194.394531 200.546875 L 194.394531 186.242188 L 199.695312 186.242188 Z M 173.039062 178.648438 C 176.265625 179.878906 177.453125 181.128906 177.453125 181.929688 C 177.453125 182.976562 175.480469 184.71875 169.933594 186.207031 Z M 251.089844 252.425781 L 179.835938 252.425781 L 179.835938 225.761719 L 251.089844 225.761719 Z M 227.324219 223.382812 L 227.324219 194.691406 L 238.105469 194.691406 L 238.105469 223.382812 Z M 243.777344 143.664062 C 246.070312 143.664062 247.722656 145.097656 248.703125 146.300781 C 251.703125 149.980469 252.792969 156.496094 251.472656 162.898438 C 250.480469 167.722656 247.578125 172.496094 244.769531 177.109375 C 241.59375 182.332031 238.582031 187.289062 238.15625 192.3125 L 233.574219 192.3125 L 233.574219 157.515625 C 233.574219 150.964844 237.765625 143.664062 243.777344 143.664062 Z M 216.0625 146.300781 C 217.042969 145.097656 218.695312 143.664062 220.992188 143.664062 C 227.003906 143.664062 231.195312 150.964844 231.195312 157.515625 L 231.195312 192.3125 L 227.324219 192.3125 L 227.324219 180.414062 C 227.324219 180.230469 227.28125 180.050781 227.199219 179.886719 C 227.085938 179.65625 224.523438 174.660156 218.074219 173.914062 C 216.027344 170.421875 214.074219 166.6875 213.292969 162.898438 C 211.976562 156.496094 213.0625 149.980469 216.0625 146.300781 Z M 216.4375 176.195312 C 221.882812 176.195312 224.378906 179.773438 224.941406 180.722656 L 224.941406 200.546875 L 221.464844 200.546875 L 221.464844 185.054688 C 221.464844 184.394531 220.933594 183.863281 220.277344 183.863281 L 212.597656 183.863281 C 211.941406 183.863281 211.40625 184.394531 211.40625 185.054688 L 211.40625 200.546875 L 207.929688 200.546875 L 207.929688 180.722656 C 208.496094 179.773438 210.988281 176.195312 216.4375 176.195312 Z M 168.089844 120.398438 L 183.199219 115.230469 L 185.222656 121.160156 C 185.21875 121.160156 185.21875 121.160156 185.214844 121.160156 L 179.917969 122.972656 C 179.296875 123.183594 178.964844 123.863281 179.175781 124.484375 C 179.34375 124.976562 179.808594 125.289062 180.300781 125.289062 C 180.429688 125.289062 180.558594 125.269531 180.6875 125.226562 L 185.984375 123.414062 C 185.988281 123.414062 185.988281 123.410156 185.992188 123.410156 L 187.769531 128.605469 C 187.765625 128.609375 187.761719 128.609375 187.757812 128.609375 L 179.648438 131.382812 C 179.023438 131.59375 178.691406 132.273438 178.90625 132.894531 C 179.074219 133.386719 179.535156 133.699219 180.03125 133.699219 C 180.160156 133.699219 180.289062 133.679688 180.417969 133.636719 L 188.527344 130.863281 C 188.53125 130.859375 188.535156 130.859375 188.539062 130.855469 L 190.316406 136.050781 L 185.773438 137.605469 C 185.152344 137.816406 184.820312 138.492188 185.035156 139.117188 C 185.203125 139.609375 185.664062 139.921875 186.160156 139.921875 C 186.285156 139.921875 186.417969 139.902344 186.542969 139.855469 L 191.085938 138.304688 L 192.859375 143.5 L 185.304688 146.082031 C 184.683594 146.292969 184.351562 146.972656 184.566406 147.59375 C 184.734375 148.089844 185.195312 148.398438 185.691406 148.398438 C 185.820312 148.398438 185.949219 148.378906 186.074219 148.335938 L 193.628906 145.75 L 195.40625 150.945312 L 190.867188 152.5 C 190.242188 152.710938 189.910156 153.386719 190.125 154.011719 C 190.292969 154.503906 190.753906 154.816406 191.25 154.816406 C 191.378906 154.816406 191.507812 154.796875 191.636719 154.75 L 196.175781 153.199219 L 197.953125 158.394531 L 190.398438 160.976562 C 189.777344 161.1875 189.441406 161.867188 189.65625 162.488281 C 189.824219 162.980469 190.289062 163.292969 190.78125 163.292969 C 190.910156 163.292969 191.039062 163.273438 191.167969 163.230469 L 198.722656 160.644531 L 200.496094 165.839844 L 195.957031 167.394531 C 195.335938 167.605469 195.003906 168.28125 195.214844 168.902344 C 195.382812 169.398438 195.847656 169.710938 196.339844 169.710938 C 196.46875 169.710938 196.597656 169.6875 196.726562 169.644531 L 201.265625 168.09375 L 203.878906 175.734375 C 202.21875 174.671875 199.972656 173.816406 197.042969 173.816406 C 192.261719 173.816406 189.304688 176.085938 187.726562 177.851562 L 180.015625 155.289062 L 179.464844 145.589844 C 179.4375 145.132812 179.152344 144.730469 178.726562 144.554688 C 178.304688 144.382812 177.816406 144.464844 177.476562 144.773438 L 176.667969 145.503906 Z M 167.738281 157.300781 L 177.578125 161.347656 L 167.085938 186.871094 C 163.527344 187.601562 159.402344 188.089844 154.992188 188.304688 Z M 157.59375 175.71875 L 154.378906 183.542969 L 154.378906 175.527344 C 155.464844 175.578125 156.539062 175.640625 157.59375 175.71875 Z M 146.675781 144.207031 L 151.296875 153.851562 L 142.058594 153.851562 Z M 133.65625 144.207031 L 138.277344 153.851562 L 129.039062 153.851562 Z M 125.957031 178.859375 L 125.957031 185.003906 C 123.160156 183.855469 122.082031 182.703125 122.082031 181.929688 C 122.082031 181.175781 123.136719 180.019531 125.957031 178.859375 Z M 170.730469 198.019531 C 170.984375 198.625 170.699219 199.324219 170.09375 199.578125 C 169.769531 199.714844 161.984375 202.929688 149.769531 202.929688 C 137.550781 202.929688 129.765625 199.714844 129.441406 199.578125 C 128.835938 199.324219 128.550781 198.625 128.804688 198.019531 C 129.058594 197.414062 129.757812 197.128906 130.363281 197.382812 C 130.4375 197.414062 138.0625 200.546875 149.769531 200.546875 C 161.472656 200.546875 169.097656 197.414062 169.171875 197.382812 C 169.777344 197.128906 170.476562 197.414062 170.730469 198.019531 Z M 170.730469 242.566406 C 170.984375 243.171875 170.699219 243.867188 170.09375 244.121094 C 169.769531 244.257812 161.984375 247.472656 149.769531 247.472656 C 137.550781 247.472656 129.765625 244.257812 129.441406 244.121094 C 128.835938 243.867188 128.550781 243.167969 128.804688 242.5625 C 129.058594 241.957031 129.757812 241.671875 130.363281 241.929688 C 130.4375 241.960938 138.0625 245.09375 149.769531 245.09375 C 161.472656 245.09375 169.097656 241.960938 169.171875 241.925781 C 169.777344 241.671875 170.476562 241.960938 170.730469 242.566406 Z M 190.207031 233.917969 C 190.207031 233.261719 190.742188 232.726562 191.398438 232.726562 L 239.527344 232.726562 C 240.183594 232.726562 240.71875 233.261719 240.71875 233.917969 C 240.71875 234.574219 240.183594 235.109375 239.527344 235.109375 L 191.398438 235.109375 C 190.742188 235.109375 190.207031 234.574219 190.207031 233.917969 Z M 240.441406 171.546875 C 240.648438 171.589844 240.855469 171.609375 241.0625 171.609375 C 242.433594 171.609375 243.820312 170.707031 245.035156 169.007812 C 246.242188 167.324219 247.195312 164.980469 247.722656 162.40625 C 248.910156 156.59375 247.574219 151.75 244.613281 151.144531 C 243.050781 150.824219 241.417969 151.726562 240.019531 153.679688 C 238.8125 155.363281 237.859375 157.707031 237.335938 160.28125 C 236.808594 162.855469 236.765625 165.386719 237.210938 167.40625 C 237.730469 169.757812 238.875 171.226562 240.441406 171.546875 Z M 239.667969 160.757812 C 240.121094 158.539062 240.953125 156.464844 241.953125 155.066406 C 242.675781 154.058594 243.441406 153.460938 243.996094 153.460938 C 244.046875 153.460938 244.09375 153.46875 244.136719 153.476562 C 245.304688 153.714844 246.371094 157.128906 245.390625 161.929688 C 244.933594 164.152344 244.101562 166.226562 243.101562 167.625 C 242.316406 168.71875 241.480469 169.328125 240.917969 169.214844 C 240.355469 169.097656 239.824219 168.210938 239.535156 166.894531 C 239.164062 165.214844 239.210938 162.980469 239.667969 160.757812 Z M 219.730469 169.007812 C 220.945312 170.707031 222.335938 171.609375 223.703125 171.609375 C 223.914062 171.609375 224.121094 171.589844 224.328125 171.546875 C 227.289062 170.941406 228.625 166.097656 227.433594 160.28125 C 226.90625 157.710938 225.953125 155.363281 224.75 153.679688 C 223.347656 151.726562 221.714844 150.824219 220.152344 151.144531 C 217.191406 151.75 215.855469 156.59375 217.046875 162.410156 C 217.574219 164.980469 218.527344 167.324219 219.730469 169.007812 Z M 220.628906 153.476562 C 221.191406 153.359375 222.027344 153.96875 222.8125 155.066406 C 223.8125 156.464844 224.648438 158.539062 225.101562 160.757812 C 226.085938 165.5625 225.015625 168.976562 223.851562 169.214844 C 223.285156 169.328125 222.453125 168.71875 221.667969 167.625 C 220.667969 166.226562 219.832031 164.152344 219.378906 161.929688 C 218.394531 157.128906 219.464844 153.714844 220.628906 153.476562 Z M 234.441406 199.808594 C 234.441406 200.945312 233.519531 201.863281 232.382812 201.863281 C 231.25 201.863281 230.328125 200.945312 230.328125 199.808594 C 230.328125 198.671875 231.25 197.753906 232.382812 197.753906 C 233.519531 197.753906 234.441406 198.671875 234.441406 199.808594 Z M 234.441406 199.808594 " fill-opacity="1" fill-rule="nonzero"/></g></svg>